<svg 
 xmlns="http://www.w3.org/2000/svg"
 xmlns:xlink="http://www.w3.org/1999/xlink"
 width="16px" height="16px">
<path fill-rule="evenodd"  fill="rgb(0, 0, 0)"
 d="M7.986,3.890 C5.721,3.890 3.893,5.718 3.893,7.985 C3.893,10.251 5.721,12.079 7.986,12.079 C10.252,12.079 12.080,10.251 12.080,7.985 C12.080,5.718 10.252,3.890 7.986,3.890 ZM7.986,10.646 C6.522,10.646 5.325,9.453 5.325,7.985 C5.325,6.516 6.519,5.323 7.986,5.323 C9.454,5.323 10.648,6.516 10.648,7.985 C10.648,9.453 9.451,10.646 7.986,10.646 L7.986,10.646 ZM13.202,3.723 C13.202,4.254 12.775,4.678 12.248,4.678 C11.717,4.678 11.293,4.250 11.293,3.723 C11.293,3.195 11.720,2.767 12.248,2.767 C12.775,2.767 13.202,3.195 13.202,3.723 ZM15.914,4.692 C15.853,3.413 15.561,2.279 14.624,1.346 C13.690,0.412 12.557,0.120 11.278,0.056 C9.960,-0.019 6.009,-0.019 4.691,0.056 C3.415,0.116 2.283,0.408 1.345,1.342 C0.409,2.276 0.120,3.409 0.056,4.688 C-0.019,6.007 -0.019,9.959 0.056,11.277 C0.116,12.556 0.409,13.690 1.345,14.624 C2.283,15.557 3.412,15.849 4.691,15.914 C6.009,15.988 9.960,15.988 11.278,15.914 C12.557,15.853 13.690,15.561 14.624,14.624 C15.557,13.690 15.849,12.556 15.914,11.277 C15.988,9.959 15.988,6.010 15.914,4.692 L15.914,4.692 ZM14.211,12.692 C13.933,13.390 13.395,13.929 12.693,14.210 C11.642,14.627 9.148,14.531 7.986,14.531 C6.825,14.531 4.328,14.624 3.280,14.210 C2.582,13.932 2.044,13.394 1.762,12.692 C1.345,11.641 1.442,9.146 1.442,7.985 C1.442,6.823 1.349,4.325 1.762,3.277 C2.040,2.579 2.578,2.041 3.280,1.759 C4.331,1.342 6.825,1.438 7.986,1.438 C9.148,1.438 11.645,1.346 12.693,1.759 C13.391,2.037 13.929,2.575 14.211,3.277 C14.627,4.328 14.531,6.823 14.531,7.985 C14.531,9.146 14.627,11.644 14.211,12.692 Z"/>
</svg>